<svg xmlns="http://www.w3.org/2000/svg" width="1084" height="168" viewBox="0 0 1084 168" fill="none"><g clip-path="url(#clip0_839_10074)"><path d="M211.573 1.0957H313.986L313.216 24.9163H240.881L240.283 43.3931H309.23L308.487 66.3895H239.539L238.448 100.2H208.377L211.573 1.0957Z" fill="#010101"></path><path d="M319.379 35.8638C320.32 6.84575 336.657 0 363.755 0H411.978C439.069 0 454.973 6.84575 454.032 35.8638L453.079 65.4334C452.138 94.4514 435.801 101.297 408.71 101.297H360.486C333.395 101.297 317.492 94.4514 318.432 65.4334L319.386 35.8638H319.379ZM349.614 55.9889C349.147 70.365 351.956 75.8349 366.175 75.8349H404.645C418.871 75.8349 422.028 70.3584 422.489 55.9889L422.831 45.3149C423.232 32.9925 420.489 25.4688 404.645 25.4688H369.424C353.574 25.4688 350.351 32.9992 349.956 45.3149L349.614 55.9889Z" fill="#010101"></path><path d="M461.063 35.8638C462.003 6.84575 478.341 0 505.439 0H553.662C580.753 0 596.657 6.84575 595.716 35.8638L594.762 65.4334C593.822 94.4514 577.484 101.297 550.393 101.297H502.17C475.079 101.297 459.175 94.4514 460.116 65.4334L461.069 35.8638H461.063ZM491.298 55.9889C490.831 70.365 493.639 75.8349 507.859 75.8349H546.328C560.555 75.8349 563.712 70.3584 564.172 55.9889L564.514 45.3149C564.915 32.9925 562.173 25.4688 546.328 25.4688H511.108C495.257 25.4688 492.034 32.9992 491.64 45.3149L491.298 55.9889Z" fill="#010101"></path><path d="M601.404 1.0957H716.011L715.215 25.7338H672.95L670.543 100.2H640.473L642.88 25.7338H600.615L601.411 1.0957H601.404Z" fill="#010101"></path><path d="M749.16 1.0957H788.307L839.017 100.206H805.559L796.778 82.6864H735.822L726.449 100.206H692.854L749.16 1.0957ZM747.753 61.325H786.222L767.918 24.0921L747.746 61.325H747.753Z" fill="#010101"></path><path d="M839.056 35.8638C839.997 6.84575 856.334 0 883.432 0H928.676C962.811 0 967.152 12.4553 966.527 31.7563L966.429 34.9067H936.897C937.213 25.0501 931.702 23.8205 922.086 23.8205H889.437C874.264 23.8205 870.219 27.5159 869.666 44.4907L869.265 56.8131C868.719 73.7879 872.527 77.4832 887.701 77.4832H919.804C927.663 77.4832 935.556 76.2537 935.865 66.6696L935.957 63.7917H898.566L899.23 43.2611H966.692L965.778 71.4616C964.857 99.9346 950.183 101.304 916.318 101.304H880.15C853.059 101.304 837.156 94.458 838.096 65.44L839.05 35.8704L839.056 35.8638Z" fill="#010101"></path><path d="M976.715 1.09649H1084L1083.26 24.0929H1006.04L1005.53 39.971H1078.68L1078.02 60.5016H1004.86L1004.35 76.3798H1083.33L1082.56 100.2H973.512L976.715 1.08984V1.09649Z" fill="#010101"></path><path d="M786.629 122.725H838.404L838.043 133.857H818.949L817.864 167.501H804.276L805.361 133.857H786.268L786.629 122.725Z" fill="#010101"></path><path d="M843.377 138.43C843.798 125.317 851.184 122.227 863.424 122.227H885.208C897.448 122.227 904.63 125.317 904.209 138.43L903.775 151.79C903.354 164.903 895.968 167.993 883.728 167.993H861.944C849.704 167.993 842.522 164.903 842.95 151.79L843.384 138.43H843.377ZM857.038 147.523C856.827 154.016 858.097 156.489 864.523 156.489H881.906C888.332 156.489 889.759 154.016 889.969 147.523L890.127 142.697C890.305 137.128 889.068 133.731 881.913 133.731H866.002C858.84 133.731 857.386 137.134 857.202 142.697L857.044 147.523H857.038Z" fill="#010101"></path><path d="M910.147 138.43C910.568 125.317 917.954 122.227 930.194 122.227H951.977C964.217 122.227 971.399 125.317 970.978 138.43L970.544 151.79C970.123 164.903 962.737 167.993 950.497 167.993H928.714C916.474 167.993 909.292 164.903 909.719 151.79L910.153 138.43H910.147ZM923.807 147.523C923.597 154.016 924.866 156.489 931.292 156.489H948.675C955.101 156.489 956.529 154.016 956.739 147.523L956.897 142.697C957.074 137.128 955.838 133.731 948.682 133.731H932.772C925.609 133.731 924.156 137.134 923.972 142.697L923.814 147.523H923.807Z" fill="#010101"></path><path d="M979.246 122.725H992.835L991.756 156.003H1022.29L1021.92 167.508H977.793L979.24 122.725H979.246Z" fill="#010101"></path><path d="M1027.92 152.846H1041.51C1041.42 157.612 1043.3 157.977 1047.22 157.977H1063.87C1066.74 157.977 1069.7 157.672 1069.81 154.202C1069.93 150.307 1068.35 150.062 1050.85 150.062C1030.4 150.062 1028.16 147.589 1028.52 136.576C1028.78 128.474 1029.71 122.227 1046.85 122.227H1065.82C1081.49 122.227 1082.78 127.61 1082.53 135.466L1082.48 136.888H1068.89C1069 133.612 1068.68 132.249 1062.43 132.249H1047.38C1044.32 132.249 1042.2 133.299 1042.12 135.712C1042 139.607 1043.65 139.733 1058.21 139.673C1079.32 139.613 1084.18 140.909 1083.76 153.963C1083.37 166.026 1079.27 168 1061.21 168H1044.75C1032.38 168 1027.5 165.647 1027.82 155.937L1027.92 152.846H1027.92Z" fill="#010101"></path><path d="M81.7544 1.18945L81.6295 1.555L63.5819 56.2346L48.9281 100.612L37.918 133.964H81.8333L92.8434 100.612L107.497 56.2346L111.023 45.5672H176.439L191.092 1.18945H81.7544Z" fill="#EB6024"></path><path d="M103.912 100.612H158.298L172.893 56.2344H118.559L103.912 100.612Z" fill="#EB6024"></path><path d="M0 45.5672H55.8397L70.4935 1.18945H14.6538L0 45.5672Z" fill="#EB6024"></path></g><defs><clipPath id="clip0_839_10074"><rect width="1084" height="168" fill="white"></rect></clipPath></defs></svg>