<?xml version="1.0" encoding="UTF-8"?>
<svg id="Full_Color_Rich_Black_-_Clear_BG" xmlns="http://www.w3.org/2000/svg" width="792" height="276.05" viewBox="0 0 792 276.05">
  <defs>
    <style>
      .cls-1 {
        fill: #7ad5cc;
      }

      .cls-2 {
        fill: #fff;
      }

      .cls-3 {
        fill: #031927;
      }
    </style>
  </defs>
  <g>
    <path class="cls-2" d="M249.15,258.72v-29.96h14.75c5.87,0,9.02,3.16,9.02,8.17,0,2.57-1.58,4.74-3.65,5.59,2.53.95,4.56,2.98,4.56,7.26,0,5.46-3.65,8.93-11.19,8.93h-13.49ZM255.2,233.95v6.5h7.9c2.48,0,3.79-1.13,3.79-3.25,0-2.3-1.22-3.25-4.15-3.25h-7.54ZM263.14,253.62c2.89,0,4.6-1.85,4.6-4.29,0-2.62-1.71-3.79-4.51-3.79h-8.03v8.08h7.94Z"/>
    <path class="cls-2" d="M308.58,258.72v-22.2h5.5v2.66c1.94-2.98,4.2-3.25,6.59-3.25h.77v6c-.54-.09-1.08-.13-1.62-.13-3.61,0-5.37,1.8-5.37,5.37v11.55h-5.87Z"/>
    <path class="cls-2" d="M369.27,258.72c-.18-.54-.32-1.31-.36-1.99-1.4,1.53-3.74,2.57-6.72,2.57-5.05,0-7.4-2.48-7.4-6.09,0-6.41,4.29-7.13,10.2-7.94,2.93-.41,3.75-.99,3.75-2.53,0-1.44-1.44-2.3-3.75-2.3-2.66,0-3.75,1.31-4.02,3.29h-5.46c.09-4.6,2.62-7.81,9.75-7.81s9.48,3.16,9.48,8.75v14.03h-5.46ZM368.86,247.85c-.59.59-1.62.9-3.79,1.31-3.34.63-4.42,1.58-4.42,3.47,0,1.67.99,2.48,2.84,2.48,3.02,0,5.28-2.21,5.32-4.83l.04-2.44Z"/>
    <path class="cls-2" d="M424.9,258.72v-13.45c0-3.43-.99-4.38-3.79-4.38-3.07,0-4.56,1.71-4.56,5.1v12.72h-5.87v-22.2h5.59v3.25c1.35-2.48,3.61-3.84,7.17-3.84,4.24,0,7.35,2.57,7.35,7.4v15.39h-5.91Z"/>
    <path class="cls-2" d="M482.16,258.72l-.05-2.71c-1.4,2.26-3.47,3.29-6.18,3.29-5.6,0-9.61-4.42-9.61-11.91,0-6.72,3.38-11.46,9.11-11.46,2.75,0,4.92,1.13,6.59,3.47v-11.01h5.78v30.32h-5.64ZM482.25,248.16c0-4.83-1.67-7.22-4.92-7.22-3.43,0-5.05,2.3-5.05,6.86,0,3.97,2.08,6.72,5.01,6.72s4.96-2.62,4.96-6.36Z"/>
    <path class="cls-2" d="M537.12,243.24c-.32-2.17-1.49-2.93-4.15-2.93-2.21,0-3.47.54-3.47,1.85s1.22,1.85,3.61,2.53c2.53.72,4.92,1.22,6.63,1.89,2.35.95,3.66,2.48,3.66,5.37,0,4.6-3.38,7.35-9.7,7.35-6.81,0-10.6-3.2-10.69-7.72h6.05c0,2.08,1.76,3.29,4.6,3.29,2.08,0,3.92-.63,3.92-2.3,0-1.58-1.67-2.08-3.56-2.53-3.74-.9-5.82-1.53-7.4-2.53-2.08-1.31-2.8-3.02-2.8-5.01,0-3.75,2.57-6.59,9.34-6.59,6.41,0,9.29,2.53,9.61,7.31h-5.64Z"/>
  </g>
  <g>
    <rect class="cls-1" x="13.05" y="18.65" width="765.9" height="175.35"/>
    <g>
      <path class="cls-3" d="M94.17,80.6c-1.1-10.38-7.51-15.42-20.66-15.42-12.21,0-18.63,4.27-18.63,11.91,0,6.41,4.54,10.08,16.12,12.82,11.74,2.75,23.17,5.5,30.84,8.86,9.08,3.97,16.28,10.23,16.28,24.58,0,22.29-17.22,32.21-41.48,32.21-25.67,0-43.51-11.15-43.98-33.89h20.97c.31,10.38,9.23,16.79,23.16,16.79,12.83,0,20.19-5.34,20.19-14.35,0-5.95-3.13-10.08-16.12-12.82-12.83-2.75-21.13-4.58-28.49-7.79-11.11-4.89-17.37-12.21-17.37-25.04,0-18.17,12.68-31.15,38.03-31.15s41.01,13.89,41.79,33.28h-20.66Z"/>
      <path class="cls-3" d="M185.73,152.06v-45.5h-40.54v45.5h-21.76V50.68h21.76v38.17h40.54v-38.17h21.91v101.38h-21.91Z"/>
      <path class="cls-3" d="M214.05,102.28c0-34.35,18-54.96,49.93-54.96s49.62,20.61,49.62,55.42-17.69,52.83-49.62,52.83-49.93-19.08-49.93-53.28ZM292.16,102.74c0-23.97-10.02-36.64-28.17-36.64s-28.49,12.67-28.49,36.64,10.49,34.66,28.49,34.66c15.65,0,28.17-10.69,28.17-34.66Z"/>
      <path class="cls-3" d="M380.74,152.06v-26.11c0-9.77-3.76-13.59-16.28-13.59h-23.16v39.7h-21.13V50.68h52.75c19.25,0,31.93,12.52,31.93,29.31,0,10.84-5.48,20-15.5,23.51,9.23,2.9,12.68,7.94,12.68,19.85v28.7h-21.29ZM341.3,68.23v27.02h27.23c11.58,0,15.97-5.65,15.97-13.44s-4.38-13.59-15.18-13.59h-28.02Z"/>
      <path class="cls-3" d="M410.63,152.06V50.68h76.38v17.71h-55.25v21.68h50.87v17.86h-50.87v26.11h57.76v18.02h-78.89Z"/>
      <path class="cls-3" d="M493.9,152.06V50.68h21.76v82.91h51.5v18.47h-73.25Z"/>
      <path class="cls-3" d="M572.31,152.06V50.68h21.76v101.38h-21.76Z"/>
      <path class="cls-3" d="M623.34,109.31v42.75h-21.76V50.68h74.03v17.71h-52.28v23.05h45.7v17.86h-45.7Z"/>
      <path class="cls-3" d="M680.62,152.06V50.68h76.38v17.71h-55.25v21.68h50.87v17.86h-50.87v26.11h57.76v18.02h-78.89Z"/>
    </g>
  </g>
</svg>